<svg width="1in" height="25px" viewPort="0 0 1cm 25px" xmlns="http://www.w3.org/2000/svg">
    <line x1="0.1775in" 
          y1="0" 
          x2="0.1775in"
          y2="25px"
          stroke-width="0.1mm" 
          stroke="black"/>
    <line x1="0.115in" 
          y1="0" 
          x2="0.115in"
          y2="5px"
          stroke-width="0.1mm" 
          stroke="black"/>
    <line x1="0.0525in" 
          y1="0" 
          x2="0.0525in" 
          y2="10px"
          stroke-width="0.1mm" 
          stroke="black"/>
    <line x1="0.99in" 
          y1="0" 
          x2="0.99in" 
          y2="5px"
          stroke-width="0.1mm" 
          stroke="black"/>
    <line x1="0.9275in" 
          y1="0" 
          x2="0.9275in"
          y2="15px"
          stroke-width="0.1mm" 
          stroke="black"/>
    <line x1="0.865in" 
          y1="0" 
          x2="0.865in" 
          y2="5px"
          stroke-width="0.1mm" 
          stroke="black"/>
    <line x1="0.8025in" 
          y1="0" 
          x2="0.8025in"  
          y2="10px"
          stroke-width="0.1mm" 
          stroke="black"/>
    <line x1="0.74in" 
          y1="0" 
          x2="0.74in" 
          y2="5px"
          stroke-width="0.1mm" 
          stroke="black"/>
    <line x1="0.6775in" 
          y1="0" 
          x2="0.6775in"
          y2="20px"
          stroke-width="0.1mm" 
          stroke="black"/>
    <line x1="0.615in" 
          y1="0" 
          x2="0.615in" 
          y2="5px"
          stroke-width="0.1mm" 
          stroke="black"/>
    <line x1="0.5525in" 
          y1="0" 
          x2="0.5525in"
          y2="10px"
          stroke-width="0.1mm" 
          stroke="black"/>
    <line x1="0.49in" 
          y1="0" 
          x2="0.49in"
          y2="5px"
          stroke-width="0.1mm" 
          stroke="black"/>
    <line x1="0.4275in" 
          y1="0" 
          x2="0.4275in"
          y2="15px"
          stroke-width="0.1mm" 
          stroke="black"/>
    <line x1="0.365in" 
          y1="0" 
          x2="0.365in"
          y2="5px"
          stroke-width="0.1mm" 
          stroke="black"/>
    <line x1="0.3025in" 
          y1="0" 
          x2="0.3025in" 
          y2="10px"
          stroke-width="0.1mm" 
          stroke="black"/>
    <line x1="0.24in" 
          y1="0" 
          x2="0.24in" 
          y2="5px"
          stroke-width="0.1mm" 
          stroke="black"/>
    
</svg>